<svg width="14" height="15" viewBox="0 0 14 15" fill="none" xmlns="http://www.w3.org/2000/svg">
<path fill-rule="evenodd" clip-rule="evenodd" d="M2.25236 3.31535L4.23177 5.32262C4.32882 5.42107 4.4058 5.53795 4.45833 5.66658C4.51086 5.79521 4.53789 5.93308 4.53789 6.07231C4.53789 6.21154 4.51086 6.34941 4.45833 6.47804C4.4058 6.60667 4.32882 6.72355 4.23177 6.822C4.13471 6.92045 4.01949 6.99855 3.89269 7.05183C3.76588 7.10511 3.62997 7.13253 3.49271 7.13253C3.35545 7.13253 3.21955 7.10511 3.09274 7.05183C2.96593 6.99855 2.85071 6.92045 2.75366 6.822L0.774877 4.81474C0.677823 4.71629 0.600834 4.59941 0.548309 4.47078C0.495783 4.34215 0.46875 4.20428 0.46875 4.06505C0.46875 3.92582 0.495783 3.78795 0.548309 3.65932C0.600834 3.53068 0.677823 3.41381 0.774877 3.31535C0.871931 3.2169 0.98715 3.13881 1.11396 3.08553C1.24076 3.03225 1.37668 3.00482 1.51393 3.00482C1.65119 3.00482 1.7871 3.03225 1.9139 3.08553C2.04071 3.13881 2.1553 3.2169 2.25236 3.31535ZM6.48541 7.6087L10.726 11.9103C10.8231 12.0088 10.9001 12.1257 10.9526 12.2543C11.0051 12.3829 11.0321 12.5208 11.0321 12.66C11.0321 12.7993 11.0051 12.9371 10.9526 13.0658C10.9001 13.1944 10.8231 13.3113 10.726 13.4097C10.629 13.5082 10.5137 13.5863 10.3869 13.6395C10.2601 13.6928 10.1242 13.7203 9.98695 13.7203C9.8497 13.7203 9.71379 13.6928 9.58699 13.6395C9.46018 13.5863 9.34496 13.5082 9.24791 13.4097L5.0073 9.10808C4.91025 9.00963 4.83326 8.89275 4.78073 8.76412C4.72821 8.63549 4.70118 8.49762 4.70118 8.35839C4.70118 8.21916 4.72821 8.08129 4.78073 7.95266C4.83326 7.82403 4.91025 7.70715 5.0073 7.6087C5.10436 7.51025 5.21958 7.43215 5.34638 7.37887C5.47319 7.32559 5.6091 7.29817 5.74636 7.29817C5.88361 7.29817 6.01952 7.32559 6.14633 7.37887C6.27313 7.43215 6.38835 7.51025 6.48541 7.6087Z" fill="#FFFFFF"/>
<path fill-rule="evenodd" clip-rule="evenodd" d="M1.24808 3.0429L12.6497 0.0351972C12.9227 -0.0369651 13.2127 0.00276759 13.457 0.145804C13.7014 0.288841 13.8804 0.523687 13.9554 0.799564C13.9922 0.93481 14.0021 1.07613 13.9846 1.2153C13.967 1.35446 13.9223 1.4887 13.8531 1.61018C13.784 1.73167 13.6916 1.83798 13.5816 1.92293C13.4715 2.00788 13.3458 2.06976 13.212 2.10499L1.81166 5.11333C1.53857 5.18546 1.24847 5.14564 1.0041 5.00248C0.759737 4.85931 0.580757 4.62432 0.505885 4.34832C0.469078 4.21312 0.459147 4.07184 0.476666 3.93271C0.494184 3.79357 0.538801 3.65936 0.607926 3.53788C0.677051 3.4164 0.769301 3.31008 0.87931 3.22511C0.989318 3.14013 1.11426 3.07819 1.24808 3.0429Z" fill="#FFFFFF"/>
<path fill-rule="evenodd" clip-rule="evenodd" d="M8.95931 12.3646L11.925 0.800157C11.9597 0.664348 12.0207 0.536903 12.1044 0.42524C12.1882 0.313577 12.293 0.219928 12.4127 0.149744C12.5325 0.0795602 12.6648 0.0342436 12.802 0.0164324C12.9392 -0.0013787 13.0785 0.00867151 13.2119 0.045998C13.4838 0.122084 13.7153 0.303694 13.8563 0.55156C13.9973 0.799427 14.0365 1.09363 13.9654 1.37056L11.0004 12.9356C10.9655 13.0713 10.9044 13.1986 10.8206 13.3101C10.7368 13.4216 10.632 13.5152 10.5122 13.5852C10.3925 13.6553 10.2602 13.7005 10.1231 13.7182C9.98594 13.7359 9.8467 13.7258 9.71346 13.6885C9.44152 13.6125 9.20997 13.4311 9.06885 13.1833C8.92773 12.9356 8.88838 12.6415 8.95931 12.3646Z" fill="#FFFFFF"/>
<path fill-rule="evenodd" clip-rule="evenodd" d="M8.57051 7.04339L4.45068 11.2225C4.35212 11.3233 4.23491 11.4034 4.10577 11.4582C3.97662 11.5129 3.83809 11.5412 3.69813 11.5415C3.55816 11.5418 3.41951 11.5141 3.29014 11.4599C3.16078 11.4057 3.04323 11.3261 2.94426 11.2257C2.84529 11.1253 2.76684 11.0061 2.71341 10.8749C2.65998 10.7436 2.63263 10.603 2.63292 10.461C2.63321 10.319 2.66115 10.1785 2.71511 10.0475C2.76908 9.91649 2.84803 9.79759 2.94741 9.69762L7.06725 5.51912C7.26688 5.3183 7.53681 5.20589 7.81796 5.20648C8.09911 5.20708 8.36857 5.32064 8.56738 5.5223C8.76618 5.72397 8.87813 5.99731 8.87872 6.28251C8.87931 6.5677 8.76848 6.84152 8.57051 7.04403V7.04339ZM2.43793 13.2642L1.81776 13.894C1.7192 13.9948 1.60199 14.0749 1.47285 14.1296C1.3437 14.1844 1.20517 14.2127 1.0652 14.213C0.925235 14.2133 0.786589 14.1855 0.657221 14.1314C0.527852 14.0772 0.410312 13.9976 0.311341 13.8972C0.212369 13.7968 0.133915 13.6775 0.0804871 13.5463C0.0270594 13.4151 -0.000290489 13.2744 2.32656e-06 13.1325C0.000295142 12.9905 0.0282269 12.85 0.0821954 12.719C0.136164 12.588 0.215104 12.4691 0.314489 12.3691L0.934666 11.74C1.1343 11.5392 1.40423 11.4267 1.68538 11.4273C1.96653 11.4279 2.23599 11.5415 2.4348 11.7432C2.6336 11.9448 2.74555 12.2182 2.74613 12.5034C2.74672 12.7886 2.6359 13.0617 2.43793 13.2642Z" fill="#FFFFFF"/>
</svg>
